<?xml version="1.0" encoding="utf-8"?>
<!-- Generator: Adobe Illustrator 25.1.0, SVG Export Plug-In . SVG Version: 6.00 Build 0)  -->
<svg version="1.1" id="Layer_1" xmlns="http://www.w3.org/2000/svg" xmlns:xlink="http://www.w3.org/1999/xlink" x="0px" y="0px"
	 viewBox="0 0 400 400" style="enable-background:new 0 0 400 400;" xml:space="preserve">
<style type="text/css">
	.st0{fill:#B7894A;}
</style>
<path class="st0" d="M17.9,217.3h322.8c0.1,0,0.1,0.1,0.1,0.2l-77,77.1c-6.8,6.8-6.8,17.7,0,24.5s17.7,6.8,24.5,0l106.8-106.8
	c6.8-6.8,6.8-17.7,0-24.5L288.2,81c-3.4-3.4-7.8-5.1-12.2-5.1s-8.9,1.7-12.2,5.1c-6.8,6.8-6.8,17.7,0,24.5l77,77.1
	c0.1,0.1,0,0.2-0.1,0.2H17.3c-9.1,0-16.5,7-17.3,15.8C-0.8,208.8,7.6,217.3,17.9,217.3z"/>
</svg>
