<?xml version="1.0" encoding="utf-8"?>
<!-- Generator: Adobe Illustrator 25.1.0, SVG Export Plug-In . SVG Version: 6.00 Build 0)  -->
<svg version="1.1"  class="csd_logo_100x" id="Layer_1" xmlns="http://www.w3.org/2000/svg"
	 viewBox="0 0 837 972"  >
	 <g id="icon_group">
<path class="c_group" d="M499,0c8.11,0.65,16.22,1.37,24.34,1.93c43.93,3.02,86.53,12.12,128.04,26.86c64.2,22.79,120.84,57.8,170.58,104.18
	c1.69,1.58,3.37,3.18,4.66,4.39c-12.23,12.37-24.24,24.51-36.22,36.62C685.87,78.51,563.15,36.93,422.04,57.64
	C306.2,74.64,212,131.43,140.83,224.39C0.14,408.16,29.56,669.15,207.36,817.88c175.62,146.91,414.19,124.28,555.94,3.23
	c-10.01-10.08-20.06-20.2-30.1-30.3c-93.6,71.85-199.02,100.15-315.72,79.25c-107.29-19.21-192.5-75.18-254.04-165.03
	C47.5,535.72,82.55,304.34,248.69,177.05C415.32,49.38,634.8,81.61,759.04,204.94c-34.27,34.74-68.55,69.48-103.01,104.41
	c-64.65-57.03-138.88-78.69-223.12-60.11c-60.01,13.24-108.12,46.08-143.91,96c-72.37,100.94-56.92,238.16,35.88,321.78
	c96.02,86.52,247.1,83.86,339.44-12.73c11.98,12.11,23.98,24.23,36.01,36.38c-76.96,85.37-231.41,128.46-366.07,47.89
	C199.5,657.93,151.81,482.98,227.18,345.6c16.01-29.17,36.26-55.01,60.91-77.42c24.76-22.5,52.46-40.43,83.23-53.5
	c30.56-12.98,62.4-20.67,95.6-22.96c33.38-2.3,66.18,0.8,98.45,9.44c32.11,8.6,61.85,22.52,89.56,41.27
	c10.06-10.59,19.89-20.94,29.61-31.18c-98.84-76.69-279.31-98.92-417.13,17.45c-141.31,119.31-159.84,330.33-41.6,472.87
	c20.45,24.65,43.93,46,70.39,64.07c26.31,17.96,54.57,32,84.81,41.97c30.39,10.01,61.59,15.63,93.61,16.83
	c32.02,1.2,63.57-1.93,94.65-9.58c30.91-7.61,60.17-19.43,87.77-35.33c27.74-15.98,52.7-35.55,76.41-59.83
	c1.5,2.24,2.54,4.44,4.15,6.07c19.44,19.67,38.92,39.3,58.49,58.85c12.61,12.6,25.38,25.05,38.11,37.53
	c0.78,0.77,1.86,1.23,2.79,1.84c0,0.33,0,0.67,0,1c-24.84,24.97-51.79,47.37-81.26,66.73c-44.06,28.95-91.49,50.46-142.5,63.69
	c-17.14,4.45-34.67,7.65-52.18,10.38c-15.7,2.45-31.63,3.46-47.45,5.15c-1.23,0.13-2.41,0.69-3.61,1.05c-15,0-30,0-45,0
	c-1.96-0.3-3.91-0.76-5.87-0.86c-33.83-1.84-67.11-7.22-99.74-16.24c-96.95-26.8-178.12-78.64-243.61-154.89
	c-37-43.08-65.25-91.47-85.18-144.65c-14.18-37.84-23.4-76.89-27.59-117.09C1.86,527.19,1,516.09,0,505c0-12.67,0-25.33,0-38
	c0.25-1.62,0.55-3.23,0.73-4.86c2.01-18.18,3.53-36.42,6.11-54.52c5.33-37.39,16.06-73.37,30.77-108.08
	c36.38-85.81,92.7-155.74,168.67-209.72c38.21-27.15,79.58-48.18,124.04-63.26c39.76-13.49,80.47-21.88,122.35-24.65
	C460.78,1.37,468.89,0.64,477,0C484.33,0,491.67,0,499,0z"/>
	</g>
</svg>
