<svg version="1.1" id="Layer_1" xmlns="http://www.w3.org/2000/svg" xmlns:xlink="http://www.w3.org/1999/xlink" x="0px" y="0px"
	 viewBox="0 0 156.8 170.7" style="enable-background:new 0 0 156.8 170.7;" xml:space="preserve">

<path class="st0" d="M120.2,17.8c12,10.3,21,22.8,27.2,36.5c6.1,13.7,9.5,28.6,9.4,44.5c-0.1,15.8-3.5,32.6-13.5,43.2
	c-10,10.6-26.6,15-43,19.9c-16.5,4.9-32.8,10.3-48.8,8.4c-16-2-31.6-11.2-37.6-25c-6-13.7-2.5-32-5.2-49.4
	C6.1,78.4-2.6,61.8,0.8,49.3c3.4-12.6,19.1-21,34-30S63.8,0.7,78.5,0C93.1-0.7,108.2,7.5,120.2,17.8z"/>
<path class="st0" d="M120.2,17.8c12,10.3,21,22.8,27.2,36.5c6.1,13.7,9.5,28.6,9.4,44.5c-0.1,15.8-3.5,32.6-13.5,43.2
	c-10,10.6-26.6,15-43,19.9c-16.5,4.9-32.8,10.3-48.8,8.4c-16-2-31.6-11.2-37.6-25c-6-13.7-2.5-32-5.2-49.4
	C6.1,78.4-2.6,61.8,0.8,49.3c3.4-12.6,19.1-21,34-30S63.8,0.7,78.5,0C93.1-0.7,108.2,7.5,120.2,17.8z"/>
</svg>
